<?xml version="1.0" encoding="utf-8"?>
<!-- Generator: Adobe Illustrator 21.1.0, SVG Export Plug-In . SVG Version: 6.00 Build 0)  -->
<svg version="1.1" id="Layer_1" xmlns="http://www.w3.org/2000/svg" xmlns:xlink="http://www.w3.org/1999/xlink" x="0px" y="0px"
	 viewBox="0 0 277 277" style="enable-background:new 0 0 277 277;" xml:space="preserve">
<style type="text/css">
	.st0{fill:#FFFFFF;}
	.st1{fill:#FFCD38;}
	.st2{fill:none;stroke:#FFFFFF;stroke-width:4.5;stroke-linecap:round;stroke-linejoin:round;stroke-miterlimit:10;}
	.st3{fill:#672572;}
</style>
<g id="_x2E_NET">
	<path id="XMLID_8_" class="st0" d="M156.4,113.3c-22.5,0-41.6,7.9-57.3,23.7c-15.8,15.7-23.7,34.8-23.7,57.3s7.9,41.5,23.7,57.2
		c5.8,5.9,12.1,10.7,18.8,14.4H19.7c-1.6-0.1-3.1-0.5-4.6-1.3c-2.4-1.2-3.7-3.5-3.7-6.9v-200c0.2-1.8,0.6-3.3,1.2-4.6
		c1.3-2.5,3.6-3.7,7.1-3.7h200.1l1.3,0.3c1.2,0.2,2.2,0.5,3.1,0.9c2.6,1.2,3.8,3.5,3.8,7.1V156c-3.7-6.8-8.5-13.1-14.4-19
		C197.7,121.2,178.6,113.3,156.4,113.3z"/>
	<path id="XMLID_2_" class="st1" d="M156.4,113.3c22.2,0,41.2,7.9,57.1,23.7c5.9,5.9,10.7,12.2,14.4,19V57.6c0-3.5-1.3-5.9-3.8-7.1
		c-0.9-0.4-1.9-0.7-3.1-0.9l-1.3-0.3H19.7c-3.4,0-5.8,1.2-7.1,3.7c-0.6,1.3-1,2.8-1.2,4.6v200.1c0,3.4,1.2,5.7,3.7,6.9
		c1.5,0.8,3,1.2,4.6,1.3H118c-6.8-3.7-13-8.5-18.8-14.4c-15.8-15.6-23.7-34.7-23.7-57.2s7.9-41.6,23.7-57.3
		C114.9,121.2,134,113.3,156.4,113.3z M225,40.2c2.2,0.4,3.8,0.9,5,1.6c4.9,2.4,7.4,6.6,7.4,12.8v139.7c0,22.4-8,41.4-23.9,57.2
		c-15.9,15.9-34.9,23.9-57.1,23.9H16.7c-2.4,0-4.8-0.6-7.4-1.8c-4.9-2.6-7.4-6.9-7.4-13V54.7c0-2.5,0.6-4.9,1.9-7.4
		c2.4-4.9,6.6-7.4,12.8-7.4h206L225,40.2z"/>
	<g>
		<path class="st1" d="M59.3,105.3c0,4.5-1.6,8.1-4.9,10.7c-3.3,2.6-7.8,3.9-13.6,3.9s-10.5-0.9-14.2-2.7v-7.9
			c2.3,1.1,4.8,2,7.4,2.6c2.6,0.6,5.1,0.9,7.3,0.9c3.3,0,5.7-0.6,7.3-1.9s2.4-2.9,2.4-5.1c0-1.9-0.7-3.5-2.2-4.9
			c-1.4-1.3-4.4-2.9-8.9-4.7c-4.7-1.9-7.9-4-9.8-6.5c-1.9-2.4-2.9-5.3-2.9-8.7c0-4.3,1.5-7.6,4.5-10.1c3-2.4,7.1-3.7,12.2-3.7
			c4.9,0,9.7,1.1,14.6,3.2l-2.7,6.8c-4.5-1.9-8.6-2.9-12.1-2.9c-2.7,0-4.8,0.6-6.1,1.8c-1.4,1.2-2.1,2.7-2.1,4.7
			c0,1.3,0.3,2.5,0.8,3.4c0.6,0.9,1.5,1.8,2.8,2.7c1.3,0.8,3.6,1.9,6.9,3.3c3.7,1.6,6.5,3,8.2,4.4c1.7,1.4,3,2.9,3.8,4.6
			C58.9,101,59.3,103,59.3,105.3z"/>
		<path class="st1" d="M68.7,119.2l-9.8-25.9h5.8l5.3,15.1c0.9,2.5,1.4,4.6,1.6,6.1h0.2c0.1-1.1,0.7-3.2,1.6-6.1l5.3-15.1h5.9
			l-9.9,25.9C74.6,119.2,68.7,119.2,68.7,119.2z"/>
		<path class="st1" d="M107.9,93.3v3l-4.4,0.8c0.4,0.5,0.7,1.2,1,2c0.3,0.8,0.4,1.6,0.4,2.5c0,2.7-0.9,4.8-2.8,6.3s-4.4,2.3-7.6,2.3
			c-0.8,0-1.6-0.1-2.2-0.2c-1.2,0.7-1.8,1.6-1.8,2.6c0,0.6,0.3,1,0.8,1.3c0.6,0.3,1.6,0.4,3.1,0.4h4.5c2.9,0,5,0.6,6.5,1.8
			c1.5,1.2,2.2,3,2.2,5.3c0,2.9-1.2,5.2-3.6,6.8c-2.4,1.6-5.9,2.4-10.5,2.4c-3.5,0-6.2-0.6-8.1-1.9s-2.8-3-2.8-5.3
			c0-1.6,0.5-2.9,1.5-4c1-1.1,2.4-1.8,4.2-2.3c-0.7-0.3-1.3-0.8-1.8-1.5c-0.5-0.7-0.7-1.4-0.7-2.2c0-1,0.3-1.8,0.8-2.5
			s1.4-1.3,2.4-2c-1.3-0.6-2.4-1.5-3.3-2.8c-0.8-1.3-1.3-2.8-1.3-4.6c0-2.8,0.9-5,2.7-6.5c1.8-1.5,4.3-2.3,7.6-2.3
			c0.7,0,1.5,0.1,2.3,0.1c0.8,0.1,1.4,0.2,1.8,0.3L107.9,93.3L107.9,93.3z M87.6,123.2c0,1.2,0.5,2.1,1.6,2.7c1.1,0.6,2.6,1,4.5,1
			c3,0,5.2-0.4,6.7-1.3c1.5-0.9,2.2-2,2.2-3.4c0-1.1-0.4-1.9-1.2-2.4c-0.8-0.5-2.3-0.7-4.5-0.7h-4.2c-1.6,0-2.8,0.4-3.8,1.1
			C88,121,87.6,122,87.6,123.2z M89.9,101.7c0,1.6,0.4,2.9,1.3,3.7c0.8,0.9,2,1.3,3.6,1.3c3.2,0,4.8-1.7,4.8-5.1
			c0-1.7-0.4-3-1.2-3.9c-0.8-0.9-2-1.4-3.6-1.4c-1.6,0-2.8,0.5-3.6,1.4C90.3,98.6,89.9,100,89.9,101.7z"/>
	</g>
	<g id="SVG">
		<g>
			<rect x="98.1" y="191.2" class="st0" width="116.1" height="2.7"/>
			<path class="st0" d="M122.7,228.5c0,5.1-4.2,9.3-9.3,9.3s-9.3-4.2-9.3-9.3c0-5.1,4.2-9.3,9.3-9.3
				C118.5,219.3,122.7,223.4,122.7,228.5z"/>
			<path class="st0" d="M207.2,157c0,5.1-4.2,9.3-9.3,9.3s-9.3-4.2-9.3-9.3s4.2-9.3,9.3-9.3C203.1,147.8,207.2,151.9,207.2,157z"/>
			<rect x="146.6" y="183.5" class="st0" width="18.5" height="18.5"/>
			<path class="st2" d="M198,150.2c0,43.6-25.5,42.6-42.1,42.6c-16.6,0-42.8,7.8-42.8,43"/>
		</g>
	</g>
</g>
<g id="prefix__Python_via__NET">
	<circle class="st3" cx="218.4" cy="58.3" r="55"/>
	<g id="prefix__XMLID_2_">
		<path id="prefix__XMLID_3_" class="st0" d="M231.9,44.4c0.5-0.4,0.8-1,0.8-1.8c0-0.7-0.2-1.2-0.6-1.6c-0.3-0.3-0.9-0.7-1.6-0.9
			c-0.7-0.3-1.1-0.5-1.3-0.7c-0.3-0.2-0.3-0.5-0.3-0.9c0-0.3,0.2-0.7,0.4-0.9c0.3-0.3,0.7-0.3,1.1-0.3c0.8,0,1.4,0.2,2,0.6v-1.4
			c-0.5-0.3-1.2-0.4-1.9-0.4c-0.9,0-1.6,0.3-2.2,0.7c-0.6,0.5-0.9,1.1-0.9,1.8s0.2,1.2,0.5,1.5s0.9,0.7,1.5,0.9
			c0.7,0.3,1.2,0.6,1.4,0.8c0.3,0.3,0.3,0.5,0.3,0.9c0,0.8-0.5,1.2-1.6,1.2c-0.9,0-1.5-0.3-2.2-0.9v1.4c0.6,0.3,1.4,0.5,2.1,0.5
			C230.5,45.2,231.2,44.9,231.9,44.4z"/>
		<path id="prefix__XMLID_29_" class="st0" d="M244.8,44.9h1.4v-7.4h2v-1.2h-2v-1.4c0-1.2,0.5-1.8,1.4-1.8c0.3,0,0.7,0.1,0.9,0.3
			v-1.3c-0.3-0.1-0.6-0.2-1-0.2c-0.8,0-1.4,0.3-1.9,0.7c-0.6,0.5-0.9,1.3-0.9,2.2v1.4h-1.3v1.2h1.4L244.8,44.9L244.8,44.9z"/>
		<path id="prefix__XMLID_30_" class="st0" d="M200.9,34.1c0.3,0,0.4-0.1,0.7-0.3c0.2-0.2,0.3-0.4,0.3-0.7s-0.1-0.4-0.3-0.6
			c-0.2-0.2-0.4-0.3-0.7-0.3s-0.4,0.1-0.6,0.3c-0.2,0.2-0.3,0.4-0.3,0.6c0,0.3,0.1,0.5,0.3,0.7S200.6,34.1,200.9,34.1z"/>
		<path id="prefix__XMLID_31_" class="st0" d="M207.8,45.2c0.9,0,1.7-0.2,2.4-0.6v-1.3c-0.7,0.5-1.4,0.8-2.1,0.8
			c-0.9,0-1.6-0.3-2.1-0.9c-0.5-0.6-0.8-1.4-0.8-2.4s0.3-1.9,0.9-2.5c0.5-0.6,1.3-0.9,2.1-0.9s1.4,0.3,2,0.7v-1.4
			c-0.6-0.3-1.3-0.4-2-0.4c-1.4,0-2.5,0.4-3.2,1.3c-0.9,0.9-1.2,2-1.2,3.4c0,1.3,0.3,2.3,1.1,3.1C205.5,44.7,206.5,45.2,207.8,45.2
			L207.8,45.2z"/>
		<path id="prefix__XMLID_34_" class="st0" d="M256.8,37h0.3c0.2,0,0.3,0.2,0.5,0.5l0.3,0.7h0.5l-0.4-0.8c-0.2-0.3-0.3-0.5-0.5-0.5
			c0.3-0.1,0.4-0.2,0.5-0.3c0.2-0.2,0.2-0.3,0.2-0.5c0-0.3-0.1-0.4-0.3-0.5c-0.2-0.2-0.4-0.3-0.9-0.3h-0.9v2.9h0.4V37L256.8,37
			L256.8,37z M256.8,35.6h0.3c0.3,0,0.4,0.1,0.5,0.2c0.1,0.1,0.2,0.2,0.2,0.3c0,0.3-0.2,0.5-0.6,0.5h-0.4V35.6z"/>
		<path id="prefix__XMLID_35_" class="st0" d="M250.4,42.6c0,1.7,0.8,2.6,2.2,2.6c0.5,0,0.9-0.1,1.3-0.3v-1.2
			c-0.3,0.2-0.5,0.3-0.9,0.3s-0.8-0.1-1-0.3c-0.2-0.3-0.3-0.7-0.3-1.2v-4.8h2.1v-1.3h-2.1v-2.6c-0.5,0.2-0.9,0.3-1.4,0.4v2.1h-1.4
			v1.2h1.4L250.4,42.6L250.4,42.6z"/>
		<path id="prefix__XMLID_40_" class="st0" d="M257.2,39c0.7,0,1.2-0.3,1.6-0.7s0.7-0.9,0.7-1.6c0-0.7-0.3-1.2-0.7-1.6
			c-0.4-0.4-0.9-0.6-1.6-0.6s-1.2,0.3-1.6,0.7s-0.7,1-0.7,1.6c0,0.7,0.3,1.2,0.7,1.6C256,38.9,256.6,39,257.2,39L257.2,39z
			 M255.9,35.4c0.4-0.4,0.9-0.6,1.4-0.6s1,0.2,1.4,0.6c0.4,0.4,0.6,0.9,0.6,1.4s-0.2,1.1-0.6,1.4c-0.4,0.4-0.9,0.6-1.4,0.6
			s-1-0.2-1.4-0.6s-0.6-0.9-0.6-1.4S255.4,35.7,255.9,35.4z"/>
		<path id="prefix__XMLID_41_" class="st0" d="M200.2,36.3h1.4v8.6h-1.4V36.3z"/>
		<path id="prefix__XMLID_44_" class="st0" d="M221.5,45.2c1.3,0,2.4-0.4,3.1-1.3c0.8-0.9,1.2-2,1.2-3.3s-0.3-2.5-1.1-3.3
			c-0.7-0.8-1.7-1.2-3-1.2s-2.4,0.3-3.1,1.1c-0.9,0.9-1.3,2-1.3,3.5c0,1.3,0.3,2.4,1.1,3.1C219.2,44.7,220.2,45.2,221.5,45.2z
			 M219.6,38.1c0.5-0.6,1.2-0.9,2-0.9c0.9,0,1.5,0.3,2,0.9c0.5,0.6,0.8,1.4,0.8,2.6c0,1-0.3,1.9-0.7,2.5c-0.5,0.6-1.2,0.9-2,0.9
			c-0.9,0-1.5-0.3-2.1-0.9c-0.5-0.6-0.8-1.4-0.8-2.4C218.8,39.5,219,38.7,219.6,38.1z"/>
		<path id="prefix__XMLID_47_" class="st0" d="M241.2,43.9c0.8-0.9,1.2-2,1.2-3.3s-0.3-2.5-1.1-3.3c-0.7-0.8-1.7-1.2-3-1.2
			s-2.4,0.3-3.1,1.1c-0.9,0.9-1.3,2-1.3,3.5c0,1.3,0.3,2.4,1.1,3.1c0.8,0.9,1.8,1.3,3.1,1.3C239.5,45.2,240.5,44.7,241.2,43.9z
			 M235.4,40.6c0-1.1,0.3-2,0.9-2.6c0.5-0.6,1.2-0.9,2-0.9c0.9,0,1.5,0.3,2,0.9c0.5,0.6,0.8,1.4,0.8,2.6c0,1-0.3,1.9-0.7,2.5
			c-0.5,0.6-1.2,0.9-2,0.9s-1.5-0.3-2.1-0.9C235.6,42.5,235.4,41.7,235.4,40.6z"/>
		<path id="prefix__XMLID_48_" class="st0" d="M221.1,66.1h11.4v-3.3h-11.4V52.2h12.3v-3.3h-16.1v31.6h16.8v-3.3h-13V66.1z"/>
		<path id="prefix__XMLID_49_" class="st0" d="M237.6,52.2h9.1v28.3h3.7V52.2h9.1v-3.3h-21.9V52.2z"/>
		<path id="prefix__XMLID_50_" class="st0" d="M177,76c-0.7,0-1.3,0.3-1.7,0.8c-0.5,0.5-0.7,1.1-0.7,1.8c0,0.7,0.3,1.3,0.7,1.8
			c0.5,0.5,1,0.8,1.7,0.8s1.3-0.3,1.8-0.8s0.8-1.1,0.8-1.8c0-0.7-0.3-1.3-0.8-1.8S177.8,76,177,76z"/>
		<path id="prefix__XMLID_51_" class="st0" d="M214.6,36.6c-0.4,0.3-0.8,0.9-0.9,1.4v-1.8h-1.4v8.6h1.4v-4.3c0-1,0.3-1.8,0.7-2.4
			c0.3-0.5,0.9-0.8,1.4-0.8c0.4,0,0.9,0.1,1,0.3v-1.4c-0.2-0.1-0.4-0.1-0.9-0.1C215.5,36.1,215,36.3,214.6,36.6z"/>
		<path id="prefix__XMLID_52_" class="st0" d="M186.2,34.5h0.1l4.4,10.4h0.7l4.5-10.4l-0.1,10.4h1.5v-12h-1.8l-4.4,9.8l-4.3-9.8
			h-1.9v12h1.4L186.2,34.5L186.2,34.5z"/>
		<path id="prefix__XMLID_53_" class="st0" d="M206.7,75.6l-16.9-26.7h-4.9v31.6h3.8V53.4l17.2,27.1h4.5V48.9h-3.7L206.7,75.6
			L206.7,75.6z"/>
	</g>
</g>
</svg>
